<svg width="1440" height="1440" viewBox="0 0 1440 1440" fill="none" xmlns="http://www.w3.org/2000/svg">
<rect width="1440" height="1440" fill="white"/>
<mask id="mask0_2_864" style="mask-type:luminance" maskUnits="userSpaceOnUse" x="214" y="229" width="1013" height="509">
<path d="M1226.65 469.194C1226.65 553.432 1187.78 623.36 1109.89 678.813C1068.74 708.249 1016.38 727.926 953.116 737.845C951.979 732.803 949.864 727.6 946.775 722.722C944.011 718.493 943.848 718.006 947.913 713.127C960.761 698.328 963.2 679.952 963.852 663.852C964.014 660.762 964.989 656.86 966.614 652.631C968.567 647.59 969.542 643.037 969.542 638.483C969.542 634.255 968.729 630.352 966.94 626.612C1003.69 585.144 1022.07 533.755 1022.07 472.121C1022.07 412.277 1004.02 366.904 967.917 336.007C951.004 321.208 931.002 309.825 908.558 302.018C887.093 294.7 864.488 291.773 841.884 291.448L720.404 289.008V321.045C707.397 319.744 693.41 319.419 678.123 320.069C639.256 321.859 600.227 331.289 565.591 347.552C552.58 353.569 540.22 360.4 528.675 368.043V289.008H424.431C363.124 289.008 319.868 303.97 294.011 334.38C267.992 364.465 252.867 408.536 247.826 466.917H214V229L864.976 230.139H865.139C983.041 231.603 1071.83 253.232 1132.33 295.514C1194.94 339.584 1226.65 397.152 1226.65 469.194Z" fill="white"/>
</mask>
<g mask="url(#mask0_2_864)">
<path d="M1226.65 469.194C1226.65 553.432 1187.78 623.36 1109.89 678.813C1068.74 708.249 1016.38 727.926 953.116 737.845C951.979 732.803 949.864 727.6 946.775 722.722C944.011 718.493 943.848 718.006 947.913 713.127C960.761 698.328 963.2 679.952 963.852 663.852C964.014 660.762 964.989 656.86 966.614 652.631C968.567 647.59 969.542 643.037 969.542 638.483C969.542 634.255 968.729 630.352 966.94 626.612C1003.69 585.144 1022.07 533.755 1022.07 472.121C1022.07 412.277 1004.02 366.904 967.917 336.007C951.004 321.208 931.002 309.825 908.558 302.018C887.093 294.7 864.488 291.773 841.884 291.448L720.404 289.008V321.045C707.397 319.744 693.41 319.419 678.123 320.069C639.256 321.859 600.227 331.289 565.591 347.552C552.58 353.569 540.22 360.4 528.675 368.043V289.008H424.431C363.124 289.008 319.868 303.97 294.011 334.38C267.992 364.465 252.867 408.536 247.826 466.917H214V229L864.976 230.139H865.139C983.041 231.603 1071.83 253.232 1132.33 295.514C1194.94 339.584 1226.65 397.152 1226.65 469.194Z" fill="url(#paint0_linear_2_864)"/>
</g>
<path d="M856.104 471.209C871.778 454.642 873.315 436.134 873.38 417.588C872.623 399.187 866.548 383.75 855.335 371.229C844.042 358.633 827.746 348.881 809.917 340.215L795.257 333.404C789.972 330.606 785.116 327.164 780.54 323.588C771.599 316.085 764.037 307.226 759.4 296.839C769.762 301.415 779.272 305.479 788.979 308.05C798.916 311.121 806.918 311.484 818.824 314.165C840.804 319.326 863.479 329.597 880.691 348.753C898.107 367.763 905.358 396.263 900.055 420.048C897.656 432.16 893.66 442.968 886.136 453.493C878.428 462.963 867.638 470.44 856.104 471.209Z" fill="#040606"/>
<path d="M852.796 437.608C846.925 420.503 835.808 407.686 822.696 398.708C809.878 389.553 794.733 384.472 779.163 380.87C747.375 374.55 713.459 372.483 680.711 374.042C664.291 374.786 647.905 376.522 631.615 379.145L600.262 406.564C604.81 405.111 609.429 403.812 614.119 402.666C639.082 396.275 666.275 394.692 690.765 402.44C665.814 407.756 643.629 415.707 622.082 425.594C600.689 435.612 579.932 447.273 559.329 459.405C538.727 471.49 518.762 484.556 498.632 497.951L437.841 540.184C449.359 517.419 465.178 497.232 483.204 479.345C501.148 461.319 521.539 445.677 543.476 432.672C554.959 425.926 566.842 419.711 579.211 414.432C586.653 403.197 595.596 392.966 605.696 384.048C597.9 385.724 590.115 387.592 582.341 389.636C549.831 398.567 518.148 411.099 485.449 426.269C507.977 398.057 538.279 376.002 571.652 360.658C605.011 345.099 641.74 336.216 678.833 334.513C697.38 333.794 716.033 334.373 734.403 337.326C752.749 340.219 770.788 344.082 788.555 351.561C806.299 358.602 823.499 369.47 836.069 384.757C848.178 399.9 855.809 419.453 852.796 437.608Z" fill="#040606"/>
<path d="M588.024 484.414C568.626 500.019 552.75 516.677 538.373 534.586C531.201 543.764 524.432 553.168 518.043 562.819C510.304 580.054 508.071 601.189 513.304 621.709C507.504 612.778 503.109 602.595 500.463 591.715C489.348 611.549 479.778 632.246 471.461 653.699C463.346 675.352 456.742 697.562 451.686 721.933C443.582 698.224 443.464 672.116 447.74 647.343C451.841 622.37 460.735 598.283 473.092 576.215C485.509 554.184 501.396 533.864 520.877 517.48C540.073 501.082 563.204 488.053 588.024 484.414Z" fill="#040606"/>
<path d="M814.806 1000.24C810.197 1023.22 799.672 1044.5 786.606 1063.23C773.755 1082.27 757.807 1098.53 741.243 1113.6L712.489 1139.79L718.325 1100.86C722.306 1074.34 722.118 1047 716.435 1020.63C711.025 994.288 700.487 968.926 686.394 945.146C672.466 921.271 655.218 898.967 636.612 877.538C618.114 855.979 597.912 835.53 578.609 814.042C602.367 830.449 625.272 847.945 647.067 867.237C668.745 886.599 688.981 908.182 705.898 932.719C722.637 957.243 736.222 984.932 743.074 1014.71C746.996 1031.96 749.134 1049.71 749.147 1067.45C755.017 1061.2 760.593 1054.75 765.828 1048.09C778.232 1031.89 788.544 1014.24 794.545 995.081C800.357 975.92 802.107 955.365 798.975 934.691C796.105 913.994 788.969 893.546 780.748 873.333C793.824 890.781 804.858 910.213 811.521 931.88C818.089 953.427 819.779 977.397 814.806 1000.24Z" fill="#040606"/>
<path d="M857.758 484.413C823.44 460.362 788.791 450.769 751.048 444.756C737.581 442.594 723.983 440.857 710.233 439.369C709.915 439.404 709.595 439.44 709.288 439.474C703.724 440.255 697.793 441.626 691.922 443.35C680.121 446.847 668.367 451.679 657.108 457.597C651.486 460.574 645.98 463.823 640.593 467.343C635.265 470.911 630.079 474.762 625.07 478.897C620.097 483.055 615.372 487.556 610.859 492.339C606.405 497.16 602.271 502.323 598.408 507.78C600.806 501.566 603.595 495.412 606.844 489.446C610.15 483.527 613.789 477.739 617.818 472.162C621.869 466.634 626.24 461.271 630.883 456.121C635.572 451.016 640.512 446.115 645.697 441.424C648.307 439.074 650.977 436.782 653.706 434.549L633.541 432.977C651.816 422.311 672.229 416.32 693.009 413.427C713.836 410.308 735.123 410.733 756.034 414.065C776.931 417.491 798.041 424.248 816.446 436.108C834.794 447.626 850.646 464.331 857.758 484.413Z" fill="#040606"/>
<path d="M466.309 447.751C459.62 461.663 452.907 474.266 447.189 487.091C441.604 499.959 436.787 512.765 433.056 526.005C429.226 539.213 426.412 552.769 423.685 566.785C421.07 580.798 418.886 595.314 414.699 610.165C409.483 595.707 406.705 580.85 406.076 565.583C405.287 550.343 407 534.741 411.327 519.752C419.932 489.764 439.597 462.708 466.309 447.751Z" fill="#040606"/>
<path d="M515.431 808.075C512.337 778.08 519.13 747.178 535.596 723.538C531.804 751.938 533.353 778.731 540.193 803.658C543.854 816.025 548.449 827.887 554.439 838.897C560.322 849.988 567.564 859.711 576.246 870.06C584.728 880.421 594.285 891.1 602.743 903.715C611.274 916.262 618.148 931.063 621.326 946.055C628.367 975.92 623.7 1008.12 607.492 1032.08C610.812 1003.63 606.961 976.982 597.25 953.627C592.041 941.98 585.992 931.631 577.912 921.731C569.974 911.726 560.605 901.814 551.308 890.65C542.129 879.582 532.927 866.469 526.903 852.256C520.759 838.128 516.754 823.173 515.431 808.075Z" fill="#040606"/>
<mask id="mask1_2_864" style="mask-type:luminance" maskUnits="userSpaceOnUse" x="438" y="887" width="401" height="325">
<path d="M838.634 1177.25V1211.07H438.741V1177.25C474.039 1175.13 497.771 1167.16 509.975 1154.32C522.332 1141.15 528.676 1111.06 528.676 1063.42V887.941C530.625 889.725 532.573 891.19 534.523 892.654C536.153 895.1 538.103 897.533 540.216 899.979C544.292 904.858 548.51 909.736 552.586 914.285C557.465 919.979 562.178 925.342 566.726 930.87C573.554 939.163 579.083 948.272 583.808 959.175C592.916 980.959 596 1005.03 593.069 1030.4L586.242 1089.26L619.413 1040.16C627.222 1028.61 632.75 1015.28 635.998 1001.12C638.929 1008.12 642.342 1014.46 645.273 1019.99L646.738 1022.75C653.732 1035.93 656.496 1046.17 656.165 1058.37C656.329 1066.98 654.866 1076.59 653.247 1086.83C652.267 1093.01 651.133 1099.35 650.483 1106.01L645.273 1152.21L675.681 1117.07C690.814 1099.84 700.241 1082.27 704.635 1063.57C705.285 1060.32 705.769 1057.07 706.254 1053.81C706.915 1065.2 706.583 1076.91 705.285 1088.78L703.985 1098.87L692.112 1177.9L732.597 1141.15C735.526 1146.83 738.941 1151.56 742.85 1154.8C757.807 1167.81 789.525 1175.13 838.634 1177.25Z" fill="white"/>
</mask>
<g mask="url(#mask1_2_864)">
<path d="M838.634 1177.25V1211.07H438.741V1177.25C474.039 1175.13 497.771 1167.16 509.975 1154.32C522.332 1141.15 528.676 1111.06 528.676 1063.42V887.941C530.625 889.725 532.573 891.19 534.523 892.654C536.153 895.1 538.103 897.533 540.216 899.979C544.292 904.858 548.51 909.736 552.586 914.285C557.465 919.979 562.178 925.342 566.726 930.87C573.554 939.163 579.083 948.272 583.808 959.175C592.916 980.959 596 1005.03 593.069 1030.4L586.242 1089.26L619.413 1040.16C627.222 1028.61 632.75 1015.28 635.998 1001.12C638.929 1008.12 642.342 1014.46 645.273 1019.99L646.738 1022.75C653.732 1035.93 656.496 1046.17 656.165 1058.37C656.329 1066.98 654.866 1076.59 653.247 1086.83C652.267 1093.01 651.133 1099.35 650.483 1106.01L645.273 1152.21L675.681 1117.07C690.814 1099.84 700.241 1082.27 704.635 1063.57C705.285 1060.32 705.769 1057.07 706.254 1053.81C706.915 1065.2 706.583 1076.91 705.285 1088.78L703.985 1098.87L692.112 1177.9L732.597 1141.15C735.526 1146.83 738.941 1151.56 742.85 1154.8C757.807 1167.81 789.525 1175.13 838.634 1177.25Z" fill="url(#paint1_linear_2_864)"/>
</g>
<path d="M528.676 898.986V905.413C521.019 899.624 514.098 892.666 507.991 885.212C496.601 871.107 487.506 855.218 480.371 838.597C474.228 824.208 469.16 809.359 465.451 794.084C465.237 795.785 465.061 797.498 464.906 799.211C462.886 820.38 464.045 842.023 467.859 863.464L476.211 910.386L443.809 875.171C437.133 867.929 430.045 860.38 423.632 851.544C417.241 842.79 411.7 832.276 408.249 821.81C401.209 800.617 399.779 780.109 398.575 759.944C397.63 734.214 399.035 708.402 402.994 683.051C395.339 695.773 389.207 709.713 384.588 724.244C379.828 738.609 376.601 753.541 374.075 768.685C371.736 783.842 370.129 799.246 370.306 814.805C364.754 784.078 365.947 752.135 372.112 720.936C375.16 705.271 380.454 689.961 387.412 675.23C394.394 660.511 403.691 646.583 415.398 634.533L439.791 609.418L432.822 644.563C425.367 682.129 422.509 720.499 425.498 758.42C426.927 777.38 428.782 796.541 434.547 812.678C435.185 814.604 435.917 816.482 436.721 818.325C436.91 810.93 437.465 803.523 438.457 796.128C441.706 772.029 449.385 748.331 461.303 727.185L513.011 635.478L483.135 735.691C481.433 741.397 481.09 750.257 481.257 758.301C481.48 766.583 482.249 775.017 483.406 783.417C485.721 800.215 489.159 817.061 494.405 833.34C499.579 849.618 505.993 865.637 515.031 880.203C519.024 886.783 523.537 893.139 528.676 898.986Z" fill="#040606"/>
<path d="M564.3 723.539C577.511 747.019 593.888 765.868 612.558 782.579C631.159 799.406 651.867 813.503 673.044 828.859C694.164 844.09 715.699 860.875 733.761 881.757C742.717 892.212 750.778 903.484 756.859 916.274C762.587 929.021 766.084 943.683 762.875 957.004C755.786 930.885 736.307 914.721 717.494 898.188C698.225 882.146 676.901 868.342 655.637 852.826C634.407 837.498 612.893 819.98 595.742 798.319C578.475 777.045 565.584 750.623 564.3 723.539Z" fill="#040606"/>
<path d="M664.83 1107.63C666.818 1089.9 670.938 1073.62 670.7 1058.13C670.998 1042.55 666.911 1030 659.527 1016.03C652.331 1002.39 642.459 984.945 640.796 965.74C638.928 946.652 643.993 928.469 652.843 913.23C654.33 931.054 655.385 947.351 660.442 961.705C665.072 976.211 673.645 988.185 682.24 1004.44C686.507 1012.3 689.862 1021.87 691.667 1031.57C692.226 1036.47 692.592 1041.48 692.506 1046.34C691.967 1051.16 691.526 1056.01 690.533 1060.61C686.203 1079.1 676.39 1094.34 664.83 1107.63Z" fill="#040606"/>
<path d="M824.303 534.517C820.312 538.482 816.322 542.447 811.143 547.592C812.401 541.09 813.319 536.357 814.49 530.303C803.446 529.091 792.723 528.182 782.09 526.648C775.498 525.697 770.342 527.264 765.334 531.72C758.231 538.042 750.522 543.68 743.072 549.611C743.192 550.155 743.312 550.7 743.431 551.244C751.332 551.698 759.289 551.727 767.114 552.762C771.788 553.381 776.758 554.752 780.728 557.193C807.746 573.811 834.533 590.807 861.404 607.667C862.892 608.6 864.455 609.413 866.678 609.374C859.988 602.919 853.356 596.403 846.593 590.029C838.844 582.726 831.108 575.397 823.091 568.396C820.195 565.869 819.517 563.436 820.336 559.854C822.238 551.55 823.827 543.176 825.543 534.83C825.13 534.726 824.716 534.621 824.303 534.517Z" fill="#040606"/>
<path d="M797.958 496.641C797.887 496.793 797.805 496.947 797.723 497.102C798.974 497.74 800.215 498.378 801.455 499.027C800.309 498.199 799.14 497.397 797.958 496.641Z" fill="#040606"/>
<path d="M847.74 873.333C840.096 858.706 828.2 849.233 814.249 843.48C800.535 837.265 785.294 833.368 770.043 828.241C754.615 823.539 739.163 817.196 724.066 809.433C722.837 808.773 721.609 808.088 720.392 807.389C723.688 824.803 723.428 842.487 719.589 859.002C719.376 834.679 711.486 811.584 698.726 792.871C693.128 788.512 687.765 783.81 682.707 778.779C678.113 774.006 673.837 768.996 669.866 763.787C669.702 763.563 669.536 763.35 669.37 763.126C652.702 741.047 641.514 715.436 635.655 689.541C627.894 657.231 626.288 624.33 630.02 592.091C637.935 623.54 645.614 654.278 656.647 683.043C662.282 697.349 668.32 711.313 676.222 723.965C680.522 731.264 685.188 738.294 690.339 744.873C691.709 746.635 693.115 748.37 694.568 750.06C697.202 753.156 699.968 756.132 702.861 758.968C723.062 780.195 749.595 794.219 778.218 807.745C792.524 814.561 807.503 821.507 821.35 831.549C828.048 836.829 834.64 842.594 839.318 849.907C844.066 857.136 846.759 865.311 847.74 873.333Z" fill="#040606"/>
<path d="M669.866 763.788C669.642 763.622 669.417 763.479 669.193 763.327L669.37 763.126C669.535 763.351 669.702 763.563 669.866 763.788Z" fill="#040606"/>
<path d="M694.569 750.061C693.116 748.37 691.71 746.635 690.34 744.873C691.793 746.574 693.21 748.299 694.569 750.061Z" fill="#040606"/>
<path d="M920.391 706.8C920.758 704.142 920.805 702.18 921.313 700.338C923.817 691.135 926.889 682.063 928.873 672.754C930.208 666.481 933.8 662.854 938.938 659.594C941.456 676.274 932.24 700.586 920.391 706.8ZM925.329 756.191C918.219 765.311 910.728 774.148 903.345 783.067C902.99 783.491 902.187 783.551 901.029 784C903.392 772.281 908.306 761.437 904.634 748.323C894.627 765.818 886.96 783.338 874.178 798.093C871.839 796.333 869.489 794.643 867.126 793.012C866.7 792.693 866.275 792.387 865.838 792.079C859.624 781.507 851.627 773.037 840.747 767.804C851.248 756.723 861.716 746.302 871.378 735.211C875.489 730.486 879.966 727.249 885.638 724.874C894.78 721.047 903.664 716.617 914.332 711.667C918.336 720.125 922.66 729.482 927.172 738.731C930.233 745.016 929.417 750.946 925.329 756.191ZM949.665 626.421C925.012 598.364 896.328 575.424 863.227 558.094C859.765 556.285 858.289 554.312 858.69 550.191C859.671 540.136 856.009 531.36 849.925 523.54C846.263 518.814 842.447 514.207 838.206 508.938C839.73 507.555 841.112 506.115 842.388 504.615C839.825 502.534 837.214 500.514 834.568 498.565C826.216 492.423 817.651 487.355 808.543 483.67C808.509 483.657 808.46 483.633 808.413 483.622C778.324 470.095 745.436 469.116 715.536 475.163C745.046 474.538 774.816 481.402 797.958 496.641C799.139 497.397 800.309 498.199 801.455 499.027C801.468 499.027 801.478 499.038 801.49 499.051C802.27 499.464 803.05 499.876 803.831 500.303C810.705 503.989 817.416 507.969 823.723 512.459C837.261 522.087 848.555 534.373 845.743 553.25C844.892 558.932 847.137 561.176 851.803 563.622C882.813 579.866 910.493 600.609 934.591 626.078C936.328 627.91 938.751 629.102 940.84 630.592C940.238 631.69 939.637 632.789 939.033 633.9C926.818 634.112 914.591 634.679 902.376 634.431C890.102 634.195 877.852 633.132 864.349 632.351C866.015 634.502 866.653 635.73 867.633 636.546C881.266 647.933 894.698 659.594 911.732 665.948C913.93 666.763 917.155 669.516 917.025 671.147C915.856 685.701 912.5 699.724 897.734 706.564C888.614 710.792 878.702 713.368 869.099 716.534C859.86 719.57 850.588 722.453 841.301 725.334C837.533 726.505 833.659 727.354 829.901 728.583C827.41 729.398 824.538 730.059 822.732 731.76C816.92 737.194 811.532 743.077 805.992 748.784C807.586 742.487 809.677 736.509 812.691 731.017C815.396 726.056 815.064 722.581 809.996 719.818C808.992 719.275 808.106 718.518 807.113 717.822C798.738 723.551 790.516 729.197 782.329 734.821C781.49 734.076 780.652 733.321 779.825 732.577C785.779 725.737 791.769 718.932 797.486 711.903C798.95 710.096 799.47 707.06 799.317 704.661C799.258 703.917 795.514 702.818 793.504 702.901C785.33 703.244 777.178 704.036 769.004 704.52C765.885 704.708 762.743 704.532 759.612 704.52C770.528 699.616 781.396 695.695 792.407 692.209C796.67 690.864 798.372 688.997 799.34 684.235C800.51 678.483 803.558 672.694 807.161 667.968C810.858 663.138 816.21 659.594 820.841 655.483C825.365 651.477 829.901 647.485 834.426 643.479C834.06 642.748 833.693 642.003 833.327 641.271C816.316 647.295 799.305 653.32 781.219 659.736C786.617 653.12 791.26 647.438 795.904 641.755C781.184 644.661 767.362 648.429 753.634 652.564C741.314 656.262 730.752 653.225 721.527 644.827C718.502 642.063 715.69 639.157 713.079 636.12C710.304 629.541 707.752 622.83 705.437 616.026C701.372 604.153 697.97 591.998 695.148 579.594C701.219 560.988 710.421 544.166 726.629 531.384C731.555 527.508 735.631 522.559 740.096 518.106L739.21 516.523C721.916 522.477 704.609 528.43 687.314 534.384C685.554 520.149 684.338 505.653 683.558 490.947C669.63 532.813 666.749 579.062 675.703 623.929C684.469 668.831 705.649 712.268 737.781 746.516C753.671 763.622 772.89 778.483 792.843 789.706C812.855 800.644 832.323 809.954 850.894 819.286C869.311 828.972 886.204 839.452 900.25 854.195C914.497 868.513 925.389 886.562 928.295 908.595C934.473 886.941 927.751 862.298 915.737 842.452C908.862 831.135 900.143 820.893 890.504 811.809C905.177 798.448 918.655 783.882 930.941 768.11C940.322 756.072 942.908 743.563 934.591 730.521C928.141 720.397 928.98 712.919 937.001 703.656C946.688 692.447 948.72 677.822 949.346 663.138C949.582 657.786 951.13 652.281 953.103 647.248C956.398 638.861 955.69 633.274 949.665 626.421Z" fill="#040606"/>
<path d="M803.831 500.304L803.63 500.623C802.92 500.091 802.211 499.571 801.491 499.051C802.27 499.465 803.05 499.877 803.831 500.304Z" fill="#040606"/>
<path d="M610.257 723.41C619.4 742.05 630.895 759.688 642.448 777.218C629.194 760.941 615.952 744.554 604.693 726.492C593.306 708.69 584.586 688.135 580.264 667.083C575.586 646.351 572.643 625.135 572.324 603.504C568.922 611.006 565.887 618.766 563.229 626.777C557.959 642.617 554.523 659.203 551.569 677.68C542.779 661.059 540.003 641.626 541.409 622.548C543.039 603.457 549.087 584.579 559.011 567.864C568.922 551.23 582.98 536.605 598.94 526.504C614.935 516.357 631.863 509.445 650.02 505.182C637.948 519.5 624.504 531.277 612.974 543.657C608.922 547.828 605.142 552.057 601.586 556.38C595.917 570.922 592.868 587.249 591.391 603.67C589.595 623.811 590.305 644.46 592.797 664.863C594.911 685.335 600.901 704.745 610.257 723.41Z" fill="#040606"/>
<path d="M905.626 951.774L897.664 979.334L892.584 955.412C891.391 961.401 889.453 967.26 886.773 972.813C878.124 990.876 862.507 1005.25 843.749 1011.9L824.114 1018.87L834.557 1001.25C845.401 982.949 850.706 961.058 849.158 939.263C847.551 917.468 839.319 895.731 825.035 877.655C842.483 892.648 854.971 914.337 859.093 938.011C861.905 953.959 861.019 970.651 856.565 986.446C863.039 980.68 868.366 973.652 871.946 965.855C878.372 951.607 879.755 934.678 874.734 919.7L862.826 884.2L888.118 911.69C891.402 915.27 894.285 919.169 896.719 923.315C897.452 912.093 896.187 900.644 892.891 889.683C887.173 870.615 875.088 853.143 858.502 840.266C877.356 849.575 893.009 866.269 901.739 886.434C910.447 906.645 911.876 930.132 905.626 951.774Z" fill="#040606"/>
<defs>
<linearGradient id="paint0_linear_2_864" x1="720.324" y1="180.124" x2="720.324" y2="1132.14" gradientUnits="userSpaceOnUse">
<stop stop-color="#EE252C"/>
<stop offset="1" stop-color="#751519"/>
</linearGradient>
<linearGradient id="paint1_linear_2_864" x1="438.741" y1="1049.51" x2="838.634" y2="1049.51" gradientUnits="userSpaceOnUse">
<stop stop-color="#EE252C"/>
<stop offset="1" stop-color="#751519"/>
</linearGradient>
</defs>
</svg>
